# xmcd CD database file
# Copyright (C) 1993-1998 Ti Kan
#
# Track frame offsets:
#  150
#  16460
#  31712
#  46727
#  61062
#  81517
#  92905
#  109525
#  122430
#  133065
#  147292
#
# Disc length: 2104 seconds
#
# Revision: 1
# Processed by: cddbd v1.4b41PL1 Copyright (c) Steve Scherf et al.
# Submitted via: CDWizzard Release:4.35
#
DISCID=8808360b
DTITLE=Kershaw  Sammy - Feelin' Good Train
DYEAR=1900
DGENRE=
TTITLE0=Feelin' Good Train
TTITLE1=Third Rate Romance
TTITLE2=If You Ever Come This Way Again
TTITLE3=National Working Woman's Holiday
TTITLE4=Southbound
TTITLE5=Better Call A Preacher
TTITLE6=Paradise From Nine To One
TTITLE7=Too Far Gone To Leave
TTITLE8=If Your Gonna Walk, I'm Gonna Crawl
TTITLE9=The Heart That Time Forgot
TTITLE10=Never Bit A Bullet Like This
EXTD=Track 11 with George Jones
EXTT0=
EXTT1=
EXTT2=
EXTT3=
EXTT4=
EXTT5=
EXTT6=
EXTT7=
EXTT8=
EXTT9=
EXTT10=
PLAYORDER=
